<?xml version="1.0" encoding="UTF-8"?>
<svg width="900px" height="140px" viewBox="0 0 900 140" version="1.1" xmlns="http://www.w3.org/2000/svg" xmlns:xlink="http://www.w3.org/1999/xlink">
    <!-- Generator: Sketch 51.3 (57544) - http://www.bohemiancoding.com/sketch -->
    <title>header</title>
    <desc>Created with Sketch.</desc>
    <defs></defs>
    <g id="Page-1" stroke="none" stroke-width="1" fill="none" fill-rule="evenodd">
        <g id="header">
            <path d="M635,65.4530387 L635,0.546961326 L643.858757,0.546961326 L657.779661,39.6546961 L657.960452,39.6546961 L657.960452,0.546961326 L667.180791,0.546961326 L667.180791,65.4530387 L658.502825,65.4530387 L644.40113,26.4364641 L644.220339,26.4364641 L644.220339,65.4530387 L635,65.4530387 Z M671.745763,38.7734807 L671.745763,29.4751381 L698.954802,29.4751381 L698.954802,38.7734807 L671.745763,38.7734807 Z M703.338983,15.8618785 C703.338983,13.2486057 703.790956,10.9392365 704.694915,8.93370166 C705.598875,6.92816677 706.804136,5.25691276 708.310734,3.9198895 C709.757069,2.64364003 711.399238,1.67127406 713.237288,1.00276243 C715.075339,0.334250801 716.928428,0 718.79661,0 C720.664793,0 722.517882,0.334250801 724.355932,1.00276243 C726.193983,1.67127406 727.866282,2.64364003 729.372881,3.9198895 C730.819216,5.25691276 731.994346,6.92816677 732.898305,8.93370166 C733.802264,10.9392365 734.254237,13.2486057 734.254237,15.8618785 L734.254237,19.1436464 L725.033898,19.1436464 L725.033898,15.8618785 C725.033898,13.6132484 724.416202,11.9571876 723.180791,10.8936464 C721.94538,9.83010518 720.484001,9.29834254 718.79661,9.29834254 C717.109219,9.29834254 715.64784,9.83010518 714.412429,10.8936464 C713.177018,11.9571876 712.559322,13.6132484 712.559322,15.8618785 L712.559322,50.1381215 C712.559322,52.3867516 713.177018,54.0428124 714.412429,55.1063536 C715.64784,56.1698948 717.109219,56.7016575 718.79661,56.7016575 C720.484001,56.7016575 721.94538,56.1698948 723.180791,55.1063536 C724.416202,54.0428124 725.033898,52.3867516 725.033898,50.1381215 L725.033898,37.9226519 L717.711864,37.9226519 L717.711864,29.718232 L734.254237,29.718232 L734.254237,50.1381215 C734.254237,52.8729419 733.802264,55.2126975 732.898305,57.1574586 C731.994346,59.1022197 730.819216,60.7127008 729.372881,61.9889503 C727.866282,63.3259735 726.193983,64.3287259 724.355932,64.9972376 C722.517882,65.6657492 720.664793,66 718.79661,66 C716.928428,66 715.075339,65.6657492 713.237288,64.9972376 C711.399238,64.3287259 709.757069,63.3259735 708.310734,61.9889503 C706.804136,60.7127008 705.598875,59.1022197 704.694915,57.1574586 C703.790956,55.2126975 703.338983,52.8729419 703.338983,50.1381215 L703.338983,15.8618785 Z M757.621469,42.7541436 L753.101695,19.2348066 L752.920904,19.2348066 L748.40113,42.7541436 L757.621469,42.7541436 Z M734.841808,65.4530387 L749.214689,0.546961326 L756.898305,0.546961326 L771.271186,65.4530387 L762.050847,65.4530387 L759.338983,51.5055249 L746.774011,51.5055249 L744.062147,65.4530387 L734.841808,65.4530387 Z M771.858757,15.8618785 C771.858757,13.2486057 772.31073,10.9392365 773.214689,8.93370166 C774.118649,6.92816677 775.32391,5.25691276 776.830508,3.9198895 C778.276843,2.64364003 779.919012,1.67127406 781.757062,1.00276243 C783.595113,0.334250801 785.448202,0 787.316384,0 C789.184567,0 791.037656,0.334250801 792.875706,1.00276243 C794.713757,1.67127406 796.386056,2.64364003 797.892655,3.9198895 C799.33899,5.25691276 800.51412,6.92816677 801.418079,8.93370166 C802.322038,10.9392365 802.774011,13.2486057 802.774011,15.8618785 L802.774011,19.1436464 L793.553672,19.1436464 L793.553672,15.8618785 C793.553672,13.6132484 792.935976,11.9571876 791.700565,10.8936464 C790.465154,9.83010518 789.003775,9.29834254 787.316384,9.29834254 C785.628993,9.29834254 784.167614,9.83010518 782.932203,10.8936464 C781.696792,11.9571876 781.079096,13.6132484 781.079096,15.8618785 L781.079096,50.1381215 C781.079096,52.3867516 781.696792,54.0428124 782.932203,55.1063536 C784.167614,56.1698948 785.628993,56.7016575 787.316384,56.7016575 C789.003775,56.7016575 790.465154,56.1698948 791.700565,55.1063536 C792.935976,54.0428124 793.553672,52.3867516 793.553672,50.1381215 L793.553672,37.9226519 L786.231638,37.9226519 L786.231638,29.718232 L802.774011,29.718232 L802.774011,50.1381215 C802.774011,52.8729419 802.322038,55.2126975 801.418079,57.1574586 C800.51412,59.1022197 799.33899,60.7127008 797.892655,61.9889503 C796.386056,63.3259735 794.713757,64.3287259 792.875706,64.9972376 C791.037656,65.6657492 789.184567,66 787.316384,66 C785.448202,66 783.595113,65.6657492 781.757062,64.9972376 C779.919012,64.3287259 778.276843,63.3259735 776.830508,61.9889503 C775.32391,60.7127008 774.118649,59.1022197 773.214689,57.1574586 C772.31073,55.2126975 771.858757,52.8729419 771.858757,50.1381215 L771.858757,15.8618785 Z M807.519774,65.4530387 L807.519774,0.546961326 L835,0.546961326 L835,9.29834254 L816.740113,9.29834254 L816.740113,28.3508287 L832.649718,28.3508287 L832.649718,37.1022099 L816.740113,37.1022099 L816.740113,56.1546961 L835,56.1546961 L835,65.4530387 L807.519774,65.4530387 Z" id="N-GAGE" fill="#000000"></path>
            <path d="M625,65.6475018 L625,1.27897692e-13 L87,1.27897692e-13 C38.9512268,1.36724109e-13 -5.88427763e-15,38.9512268 0,87 L0,105 L164.639766,105 L164.639766,80.6475018 C164.639766,72.3632305 171.355495,65.6475018 179.639766,65.6475018 L625,65.6475018 Z" id="Path-2" fill="#C55C5D" fill-rule="nonzero"></path>
            <path d="M845,0 L867,0 C885.225397,-3.34795107e-15 900,14.7746033 900,33 L900,33 C900,51.2253967 885.225397,66 867,66 L845,66 L845,0 Z" id="Rectangle" fill="#C55C5D" fill-rule="nonzero"></path>
            <rect id="Rectangle-2" fill="#F6A36F" fill-rule="nonzero" x="0" y="110" width="164.739829" height="30"></rect>
        </g>
    </g>
</svg>